# xmcd
#
# Track frame offsets:
#	150
#	19583
#	40959
#	66377
#	82111
#	98658
#	118483
#	136062
#	151418
#	170089
#	186256
#	204094
#	218989
#	240020
#	259063
#	284863
#	298532
#	315578
#	335785
#
# Disc length: 4761 seconds
#
# Revision: 0
# Processed by: cddbd v1.5.1PL0 Copyright (c) Steve Scherf et al.
# Submitted via: audiograbber 1.83.01
#
DISCID=21129713
DTITLE=Benny Ibarra - Lo mejor de...
DYEAR=2004
DGENRE=Ballad
TTITLE0=Tonto corazon
TTITLE1=Dame un poco de tu amor
TTITLE2=Sin ti
TTITLE3=Mia
TTITLE4=Cielo
TTITLE5=Nuevo amanecer
TTITLE6=Estoy
TTITLE7=Sutil dolor
TTITLE8=Mas de ti
TTITLE9=Cada manana
TTITLE10=Girasol
TTITLE11=Uno
TTITLE12=Hiereme
TTITLE13=Todo o nada
TTITLE14=Fuego
TTITLE15=Inspiracion
TTITLE16=Cielo 2002
TTITLE17=Alex Ibarra - Harto de extranarte
TTITLE18=Alex Ibarra - Ese silencio
EXTD=by lckim
EXTT0=
EXTT1=
EXTT2=
EXTT3=
EXTT4=
EXTT5=
EXTT6=
EXTT7=
EXTT8=
EXTT9=
EXTT10=
EXTT11=
EXTT12=
EXTT13=
EXTT14=
EXTT15=
EXTT16=
EXTT17=
EXTT18=
PLAYORDER=
